<svg id="Symbols" xmlns="http://www.w3.org/2000/svg" width="17.81" height="13.852" viewBox="0 0 17.81 13.852">
  <g id="icon-_-social-_-twitter-_-dark" data-name="icon-/-social-/-twitter-/-dark" transform="translate(0 0)">
    <path id="Fill-1" d="M24.81,10.64a7.572,7.572,0,0,1-2.1.551,3.539,3.539,0,0,0,1.607-1.935A7.53,7.53,0,0,1,22,10.1,3.728,3.728,0,0,0,19.33,9a3.578,3.578,0,0,0-3.654,3.5,3.367,3.367,0,0,0,.095.8A10.534,10.534,0,0,1,8.24,9.64,3.369,3.369,0,0,0,7.745,11.4a3.459,3.459,0,0,0,1.625,2.91,3.76,3.76,0,0,1-1.655-.437c0,.015,0,.029,0,.044a3.541,3.541,0,0,0,2.931,3.429A3.835,3.835,0,0,1,9,17.4a3.641,3.641,0,0,0,3.413,2.428,7.543,7.543,0,0,1-4.538,1.5A7.844,7.844,0,0,1,7,21.281a10.684,10.684,0,0,0,5.6,1.571A10.1,10.1,0,0,0,23,12.9c0-.152,0-.3-.011-.453a7.243,7.243,0,0,0,1.823-1.81" transform="translate(-7 -9)" fill="#3e3e3e" fill-rule="evenodd"/>
  </g>
</svg>
